# xmcd
#
# Track frame offsets:
#	150
#	23186
#	35272
#	50967
#	75162
#	86884
#	99664
#	108793
#	123643
#
# Disc length: 1867 seconds
#
# Revision: 1
# Processed by: cddbd v1.5.1PL0 Copyright (c) Steve Scherf et al.
# Submitted via: EasyCDDAExtractor 6.5.0.1
#
DISCID=6c074909
DTITLE=Francisco Dutra - Som Rural
DYEAR=1900
DGENRE=
TTITLE0=O MENSAGEIRO DO AMOR
TTITLE1=ESCOLA DA VIDA
TTITLE2=RUMO A CARATINGA
TTITLE3=SÃO FRANCISCO DE ASSIS
TTITLE4=BRASIL COM Z
TTITLE5=REI DOS REIS
TTITLE6=CRIAÇÃO DO MUNDO
TTITLE7=LEMBRANÇAS DO INTERIOR
TTITLE8=HOMENAJEM A TONICO E TINOCO
EXTD=
EXTT0=
EXTT1=
EXTT2=
EXTT3=
EXTT4=
EXTT5=
EXTT6=
EXTT7=
EXTT8=
PLAYORDER=
